<svg width="51" height="51" viewBox="0 0 51 51" fill="none" xmlns="http://www.w3.org/2000/svg">
<g clip-path="url(#clip0_681_29)">
<path d="M19.9493 30.2681C22.5963 30.2681 24.8885 29.3187 26.7614 27.4455C28.6343 25.5727 29.5837 23.2811 29.5837 20.6338C29.5837 17.9872 28.6343 15.6955 26.7611 13.8219C24.8879 11.9494 22.596 11 19.9493 11C17.3019 11 15.0103 11.9494 13.1375 13.8223C11.2647 15.6951 10.3149 17.987 10.3149 20.6338C10.3149 23.2811 11.2646 25.573 13.1378 27.4459C15.011 29.3184 17.3028 30.2681 19.9493 30.2681ZM36.8068 41.7579C36.7528 40.9786 36.6435 40.1282 36.4827 39.2305C36.3203 38.3259 36.1114 37.4708 35.8611 36.6893C35.6026 35.8815 35.2511 35.0838 34.8165 34.3193C34.3654 33.5259 33.8357 32.8349 33.2411 32.2664C32.6195 31.6716 31.8584 31.1934 30.9783 30.8445C30.1012 30.4977 29.1292 30.3219 28.0895 30.3219C27.6812 30.3219 27.2863 30.4894 26.5237 30.9859C25.9816 31.3389 25.4378 31.6895 24.8925 32.0375C24.3685 32.3714 23.6587 32.6842 22.7819 32.9674C21.9265 33.2442 21.058 33.3846 20.2007 33.3846C19.3435 33.3846 18.4753 33.2442 17.6189 32.9674C16.7432 32.6844 16.0333 32.3717 15.5099 32.0378C14.9029 31.6499 14.3536 31.2959 13.8772 30.9855C13.1155 30.4891 12.7203 30.3215 12.312 30.3215C11.2719 30.3215 10.3003 30.4976 9.4235 30.8449C8.54397 31.1931 7.78257 31.6713 7.16031 32.2667C6.56617 32.8355 6.03609 33.5261 5.58562 34.3193C5.15141 35.0837 4.79985 35.8812 4.54102 36.6896C4.29102 37.4711 4.08204 38.3259 3.91969 39.2305C3.75883 40.1271 3.64962 40.9776 3.59555 41.7589C3.54177 42.5451 3.51512 43.3329 3.51563 44.1209C3.51563 46.2089 4.17938 47.8992 5.48828 49.1459C6.78101 50.3761 8.49147 51.0002 10.5715 51.0002H29.8318C31.9118 51.0002 33.6217 50.3764 34.9147 49.1459C36.2239 47.9002 36.8877 46.2096 36.8877 44.1206C36.8874 43.3146 36.8603 42.5196 36.8068 41.7579Z" fill="black"/>
</g>
<path d="M41.1836 1.97729V17.6591" stroke="black" stroke-width="2" stroke-linecap="round" stroke-linejoin="round"/>
<path d="M33.3418 9.81812H49.0236" stroke="black" stroke-width="2" stroke-linecap="round" stroke-linejoin="round"/>
<defs>
<clipPath id="clip0_681_29">
<rect width="40" height="40" fill="white" transform="translate(0 11)"/>
</clipPath>
</defs>
</svg>
