<svg width="42" height="42" viewBox="0 0 42 42" fill="none" xmlns="http://www.w3.org/2000/svg">
<path d="M41 11.9091C41 10.9447 40.6758 10.0197 40.0988 9.33779C39.5218 8.65584 38.7391 8.27273 37.9231 8.27273H17.9231L14.2308 2.45455C13.9442 2.00292 13.5725 1.63637 13.1453 1.3839C12.718 1.13144 12.2469 1 11.7692 1H4.07692C3.26087 1 2.47825 1.38312 1.90121 2.06507C1.32418 2.74702 1 3.67194 1 4.63636V37.3636C1 38.3281 1.32418 39.253 1.90121 39.9349C2.47825 40.6169 3.26087 41 4.07692 41H37.9231C38.7391 41 39.5218 40.6169 40.0988 39.9349C40.6758 39.253 41 38.3281 41 37.3636V11.9091Z" stroke="black" stroke-width="2" stroke-linecap="round" stroke-linejoin="round"/>
</svg>
