<svg width="42" height="47" viewBox="0 0 42 47" fill="none" xmlns="http://www.w3.org/2000/svg">
<path d="M1 46V43.125C1 40.4821 1.51731 37.8652 2.52241 35.4235C3.5275 32.9818 5.00069 30.7633 6.85786 28.8945C8.71504 27.0257 10.9198 25.5433 13.3463 24.5319C15.7728 23.5205 18.3736 23 21 23C23.6264 23 26.2272 23.5205 28.6537 24.5319C31.0802 25.5433 33.285 27.0257 35.1421 28.8945C36.9993 30.7633 38.4725 32.9818 39.4776 35.4235C40.4827 37.8652 41 40.4821 41 43.125V46" stroke="black" stroke-width="2" stroke-linecap="round" stroke-linejoin="round"/>
<path d="M20.5 23C23.55 23 26.4751 21.8411 28.6317 19.7782C30.7884 17.7153 32 14.9174 32 12C32 9.08262 30.7884 6.28472 28.6317 4.22182C26.4751 2.15892 23.55 1 20.5 1C17.45 1 14.5249 2.15892 12.3683 4.22182C10.2116 6.28472 9 9.08262 9 12C9 14.9174 10.2116 17.7153 12.3683 19.7782C14.5249 21.8411 17.45 23 20.5 23V23Z" stroke="black" stroke-width="2" stroke-linecap="round" stroke-linejoin="round"/>
</svg>
