<svg width="50" height="50" viewBox="0 0 50 50" fill="none" xmlns="http://www.w3.org/2000/svg">
<rect width="50" height="50" rx="4" fill="#FFBC0F"/>
<rect x="26" y="8" width="16" height="16" rx="3" fill="black"/>
<rect x="26" y="26" width="16" height="16" rx="3" fill="black"/>
<rect x="8" y="26" width="16" height="16" rx="3" fill="black"/>
<rect x="8" y="8" width="16" height="16" rx="3" fill="black"/>
<rect x="12" y="15" width="8" height="2" rx="1" fill="#FFBC0F"/>
<rect x="15" y="20" width="8" height="2" rx="1" transform="rotate(-90 15 20)" fill="#FFBC0F"/>
<rect x="30" y="15" width="8" height="2" rx="1" fill="#FFBC0F"/>
<rect x="30" y="35" width="8" height="2" rx="1" fill="#FFBC0F"/>
<rect x="30" y="31" width="8" height="2" rx="1" fill="#FFBC0F"/>
<rect x="12.4639" y="36.1213" width="8" height="2" rx="1" transform="rotate(-45 12.4639 36.1213)" fill="#FFBC0F"/>
<rect x="18.1211" y="37.5355" width="8" height="2" rx="1" transform="rotate(-135 18.1211 37.5355)" fill="#FFBC0F"/>
</svg>
