<svg width="11" height="11" viewBox="0 0 11 11" fill="none" xmlns="http://www.w3.org/2000/svg">
<path fill-rule="evenodd" clip-rule="evenodd" d="M6.92369 7.59354C6.0725 8.27368 4.9932 8.60206 3.90746 8.51124C2.82172 8.42041 1.81197 7.91728 1.08559 7.10517C0.359215 6.29307 -0.0286535 5.23363 0.0016509 4.14446C0.0319553 3.0553 0.478132 2.01907 1.24854 1.24862C2.01896 0.478159 3.05512 0.0319571 4.14423 0.00165099C5.23333 -0.0286552 6.2927 0.359235 7.10476 1.08566C7.91682 1.81208 8.41993 2.82189 8.51075 3.90769C8.60157 4.99348 8.27321 6.07284 7.59311 6.92409L10.8492 10.1798C10.8958 10.2232 10.9331 10.2754 10.959 10.3335C10.9849 10.3917 10.9988 10.4544 10.9999 10.518C11.001 10.5816 10.9893 10.6447 10.9655 10.7037C10.9417 10.7627 10.9062 10.8163 10.8613 10.8613C10.8163 10.9062 10.7627 10.9417 10.7037 10.9655C10.6448 10.9893 10.5816 11.001 10.518 10.9999C10.4544 10.9988 10.3917 10.9849 10.3336 10.959C10.2755 10.9331 10.2232 10.8958 10.1798 10.8492L6.92369 7.59354ZM1.91823 6.60705C1.45472 6.14346 1.13902 5.55286 1.01105 4.9099C0.883079 4.26693 0.948569 3.60046 1.19925 2.99471C1.44992 2.38895 1.87453 1.87111 2.41942 1.50663C2.9643 1.14214 3.60499 0.947365 4.26053 0.946924C4.91607 0.946483 5.55703 1.14039 6.10241 1.50415C6.64778 1.8679 7.07309 2.38517 7.32458 2.99059C7.57607 3.596 7.64246 4.26238 7.51535 4.90552C7.38824 5.54866 7.07334 6.13968 6.61046 6.60389L6.6073 6.60705L6.60414 6.60957C5.98215 7.23016 5.13927 7.57847 4.26066 7.578C3.38205 7.57752 2.53955 7.2283 1.91823 6.60705Z" fill="black" fill-opacity="0.35"/>
</svg>
