<svg width="42" height="42" viewBox="0 0 42 42" fill="none" xmlns="http://www.w3.org/2000/svg">
<path d="M40.3298 15.5758L21.0089 1L1.67022 15.5758C1.27043 15.9447 1.03004 16.4548 1 16.9979V39.2562C1.00141 39.7169 1.18504 40.1582 1.5108 40.4839C1.83656 40.8097 2.27798 40.9933 2.73867 40.9947H14.3333V31.6679C14.3333 29.9 15.0357 28.2046 16.286 26.9545C17.5362 25.7044 19.2319 25.0021 21 25.0021C22.7681 25.0021 24.4638 25.7044 25.714 26.9545C26.9643 28.2046 27.6667 29.9 27.6667 31.6679V41H39.2596C39.7204 40.9986 40.162 40.815 40.4881 40.4894C40.8141 40.1637 40.9981 39.7224 41 39.2616V16.9979C40.9692 16.455 40.729 15.9452 40.3298 15.5758Z" stroke="black" stroke-width="2" stroke-linecap="round" stroke-linejoin="round"/>
</svg>
