<svg width="148" height="50" viewBox="0 0 148 50" fill="none" xmlns="http://www.w3.org/2000/svg">
<path d="M62.411 21V9.1H67.562C68.6273 9.1 69.5453 9.27567 70.316 9.627C71.0867 9.967 71.6817 10.46 72.101 11.106C72.5203 11.752 72.73 12.5227 72.73 13.418C72.73 14.302 72.5203 15.067 72.101 15.713C71.6817 16.359 71.0867 16.8577 70.316 17.209C69.5453 17.549 68.6273 17.719 67.562 17.719H63.941L65.165 16.478V21H62.411ZM65.165 16.784L63.941 15.475H67.409C68.259 15.475 68.8937 15.2937 69.313 14.931C69.7323 14.5683 69.942 14.064 69.942 13.418C69.942 12.7607 69.7323 12.2507 69.313 11.888C68.8937 11.5253 68.259 11.344 67.409 11.344H63.941L65.165 10.035V16.784ZM74.4926 21V11.854H77.0256V14.438L76.6686 13.69C76.9406 13.044 77.3769 12.5567 77.9776 12.228C78.5782 11.888 79.3092 11.718 80.1706 11.718V14.166C80.0572 14.1547 79.9552 14.149 79.8646 14.149C79.7739 14.1377 79.6776 14.132 79.5756 14.132C78.8502 14.132 78.2609 14.3417 77.8076 14.761C77.3656 15.169 77.1446 15.8093 77.1446 16.682V21H74.4926ZM86.22 21.136C85.1774 21.136 84.2594 20.932 83.466 20.524C82.684 20.116 82.0777 19.5607 81.647 18.858C81.2164 18.144 81.001 17.3337 81.001 16.427C81.001 15.509 81.2107 14.6987 81.63 13.996C82.0607 13.282 82.6444 12.7267 83.381 12.33C84.1177 11.922 84.9507 11.718 85.88 11.718C86.7754 11.718 87.58 11.9107 88.294 12.296C89.0194 12.67 89.5917 13.214 90.011 13.928C90.4304 14.6307 90.64 15.475 90.64 16.461C90.64 16.563 90.6344 16.682 90.623 16.818C90.6117 16.9427 90.6004 17.0617 90.589 17.175H83.16V15.628H89.195L88.175 16.087C88.175 15.611 88.0787 15.1973 87.886 14.846C87.6934 14.4947 87.427 14.2227 87.087 14.03C86.747 13.826 86.3504 13.724 85.897 13.724C85.4437 13.724 85.0414 13.826 84.69 14.03C84.35 14.2227 84.0837 14.5003 83.891 14.863C83.6984 15.2143 83.602 15.6337 83.602 16.121V16.529C83.602 17.0277 83.7097 17.4697 83.925 17.855C84.1517 18.229 84.4634 18.518 84.86 18.722C85.268 18.9147 85.744 19.011 86.288 19.011C86.7754 19.011 87.2004 18.9373 87.563 18.79C87.937 18.6427 88.277 18.4217 88.583 18.127L89.994 19.657C89.5747 20.133 89.0477 20.5013 88.413 20.762C87.7784 21.0113 87.0474 21.136 86.22 21.136ZM104.119 11.718C104.844 11.718 105.484 11.8653 106.04 12.16C106.606 12.4433 107.048 12.8853 107.366 13.486C107.694 14.0753 107.859 14.8347 107.859 15.764V21H105.207V16.172C105.207 15.4353 105.054 14.8913 104.748 14.54C104.442 14.1887 104.011 14.013 103.456 14.013C103.07 14.013 102.725 14.1037 102.419 14.285C102.113 14.455 101.875 14.7157 101.705 15.067C101.535 15.4183 101.45 15.866 101.45 16.41V21H98.7976V16.172C98.7976 15.4353 98.6446 14.8913 98.3386 14.54C98.044 14.1887 97.619 14.013 97.0636 14.013C96.6783 14.013 96.3326 14.1037 96.0266 14.285C95.7206 14.455 95.4826 14.7157 95.3126 15.067C95.1426 15.4183 95.0576 15.866 95.0576 16.41V21H92.4056V11.854H94.9386V14.353L94.4626 13.622C94.78 12.9987 95.2276 12.5283 95.8056 12.211C96.395 11.8823 97.0636 11.718 97.8116 11.718C98.6503 11.718 99.3813 11.9333 100.005 12.364C100.639 12.7833 101.059 13.4293 101.263 14.302L100.328 14.047C100.634 13.333 101.121 12.7663 101.79 12.347C102.47 11.9277 103.246 11.718 104.119 11.718ZM110.236 21V11.854H112.888V21H110.236ZM111.562 10.579C111.074 10.579 110.678 10.4373 110.372 10.154C110.066 9.87067 109.913 9.51933 109.913 9.1C109.913 8.68067 110.066 8.32933 110.372 8.046C110.678 7.76267 111.074 7.621 111.562 7.621C112.049 7.621 112.446 7.757 112.752 8.029C113.058 8.28967 113.211 8.62967 113.211 9.049C113.211 9.491 113.058 9.85933 112.752 10.154C112.457 10.4373 112.06 10.579 111.562 10.579ZM119.208 21.136C118.449 21.136 117.769 20.9887 117.168 20.694C116.579 20.3993 116.12 19.9517 115.791 19.351C115.462 18.739 115.298 17.9627 115.298 17.022V11.854H117.95V16.631C117.95 17.3903 118.109 17.9513 118.426 18.314C118.755 18.6653 119.214 18.841 119.803 18.841C120.211 18.841 120.574 18.756 120.891 18.586C121.208 18.4047 121.458 18.1327 121.639 17.77C121.82 17.396 121.911 16.9313 121.911 16.376V11.854H124.563V21H122.047V18.484L122.506 19.215C122.2 19.8497 121.747 20.3313 121.146 20.66C120.557 20.9773 119.911 21.136 119.208 21.136ZM138.733 11.718C139.458 11.718 140.099 11.8653 140.654 12.16C141.221 12.4433 141.663 12.8853 141.98 13.486C142.309 14.0753 142.473 14.8347 142.473 15.764V21H139.821V16.172C139.821 15.4353 139.668 14.8913 139.362 14.54C139.056 14.1887 138.625 14.013 138.07 14.013C137.685 14.013 137.339 14.1037 137.033 14.285C136.727 14.455 136.489 14.7157 136.319 15.067C136.149 15.4183 136.064 15.866 136.064 16.41V21H133.412V16.172C133.412 15.4353 133.259 14.8913 132.953 14.54C132.658 14.1887 132.233 14.013 131.678 14.013C131.293 14.013 130.947 14.1037 130.641 14.285C130.335 14.455 130.097 14.7157 129.927 15.067C129.757 15.4183 129.672 15.866 129.672 16.41V21H127.02V11.854H129.553V14.353L129.077 13.622C129.394 12.9987 129.842 12.5283 130.42 12.211C131.009 11.8823 131.678 11.718 132.426 11.718C133.265 11.718 133.996 11.9333 134.619 12.364C135.254 12.7833 135.673 13.4293 135.877 14.302L134.942 14.047C135.248 13.333 135.735 12.7663 136.404 12.347C137.084 11.9277 137.86 11.718 138.733 11.718ZM68.106 42.102C67.2107 42.102 66.3833 41.9547 65.624 41.66C64.8647 41.354 64.2073 40.929 63.652 40.385C63.0967 39.841 62.6603 39.2007 62.343 38.464C62.037 37.7273 61.884 36.9227 61.884 36.05C61.884 35.1773 62.037 34.3727 62.343 33.636C62.6603 32.8993 63.0967 32.259 63.652 31.715C64.2187 31.171 64.8817 30.7517 65.641 30.457C66.4003 30.151 67.2277 29.998 68.123 29.998C68.9843 29.998 69.7947 30.1453 70.554 30.44C71.3133 30.7233 71.9537 31.154 72.475 31.732L71.676 32.531C71.1887 32.0323 70.6503 31.6753 70.061 31.46C69.4717 31.2333 68.837 31.12 68.157 31.12C67.443 31.12 66.78 31.2447 66.168 31.494C65.556 31.732 65.0233 32.0777 64.57 32.531C64.1167 32.973 63.7597 33.4943 63.499 34.095C63.2497 34.6843 63.125 35.336 63.125 36.05C63.125 36.764 63.2497 37.4213 63.499 38.022C63.7597 38.6113 64.1167 39.1327 64.57 39.586C65.0233 40.028 65.556 40.3737 66.168 40.623C66.78 40.861 67.443 40.98 68.157 40.98C68.837 40.98 69.4717 40.8667 70.061 40.64C70.6503 40.4133 71.1887 40.0507 71.676 39.552L72.475 40.351C71.9537 40.929 71.3133 41.3653 70.554 41.66C69.7947 41.9547 68.9787 42.102 68.106 42.102ZM80.3619 42V40.028L80.3109 39.705V36.407C80.3109 35.6477 80.0956 35.064 79.6649 34.656C79.2456 34.248 78.6166 34.044 77.7779 34.044C77.1999 34.044 76.6503 34.1403 76.1289 34.333C75.6076 34.5257 75.1656 34.7807 74.8029 35.098L74.2589 34.197C74.7123 33.8117 75.2563 33.517 75.8909 33.313C76.5256 33.0977 77.1943 32.99 77.8969 32.99C79.0529 32.99 79.9426 33.279 80.5659 33.857C81.2006 34.4237 81.5179 35.2907 81.5179 36.458V42H80.3619ZM77.2849 42.085C76.6163 42.085 76.0326 41.9773 75.5339 41.762C75.0466 41.5353 74.6726 41.2293 74.4119 40.844C74.1513 40.4473 74.0209 39.994 74.0209 39.484C74.0209 39.0193 74.1286 38.6 74.3439 38.226C74.5706 37.8407 74.9333 37.5347 75.4319 37.308C75.9419 37.07 76.6219 36.951 77.4719 36.951H80.5489V37.852H77.5059C76.6446 37.852 76.0439 38.005 75.7039 38.311C75.3753 38.617 75.2109 38.9967 75.2109 39.45C75.2109 39.96 75.4093 40.368 75.8059 40.674C76.2026 40.98 76.7579 41.133 77.4719 41.133C78.1519 41.133 78.7356 40.98 79.2229 40.674C79.7216 40.3567 80.0843 39.9033 80.3109 39.314L80.5829 40.147C80.3563 40.7363 79.9596 41.2067 79.3929 41.558C78.8376 41.9093 78.1349 42.085 77.2849 42.085ZM84.7963 42V29.386H86.0033V42H84.7963ZM93.0677 42.085C92.1837 42.085 91.3904 41.8923 90.6877 41.507C89.9964 41.1103 89.4524 40.572 89.0557 39.892C88.659 39.2007 88.4607 38.413 88.4607 37.529C88.4607 36.6337 88.659 35.846 89.0557 35.166C89.4524 34.486 89.9964 33.9533 90.6877 33.568C91.3904 33.1827 92.1837 32.99 93.0677 32.99C93.827 32.99 94.5127 33.1373 95.1247 33.432C95.7367 33.7267 96.2184 34.1687 96.5697 34.758L95.6687 35.37C95.3627 34.9167 94.983 34.5823 94.5297 34.367C94.0764 34.1517 93.5834 34.044 93.0507 34.044C92.416 34.044 91.8437 34.1913 91.3337 34.486C90.8237 34.7693 90.4214 35.1717 90.1267 35.693C89.832 36.2143 89.6847 36.8263 89.6847 37.529C89.6847 38.2317 89.832 38.8437 90.1267 39.365C90.4214 39.8863 90.8237 40.2943 91.3337 40.589C91.8437 40.8723 92.416 41.014 93.0507 41.014C93.5834 41.014 94.0764 40.9063 94.5297 40.691C94.983 40.4757 95.3627 40.147 95.6687 39.705L96.5697 40.317C96.2184 40.895 95.7367 41.337 95.1247 41.643C94.5127 41.9377 93.827 42.085 93.0677 42.085ZM102.63 42.085C101.87 42.085 101.207 41.9433 100.641 41.66C100.074 41.3767 99.6321 40.9517 99.3148 40.385C99.0088 39.8183 98.8558 39.11 98.8558 38.26V33.075H100.063V38.124C100.063 39.076 100.295 39.7957 100.76 40.283C101.236 40.759 101.899 40.997 102.749 40.997C103.372 40.997 103.91 40.8723 104.364 40.623C104.828 40.3623 105.18 39.9883 105.418 39.501C105.667 39.0137 105.792 38.43 105.792 37.75V33.075H106.999V42H105.843V39.552L106.03 39.994C105.746 40.6513 105.304 41.167 104.704 41.541C104.114 41.9037 103.423 42.085 102.63 42.085ZM110.363 42V29.386H111.57V42H110.363ZM120.521 42V40.028L120.47 39.705V36.407C120.47 35.6477 120.255 35.064 119.824 34.656C119.405 34.248 118.776 34.044 117.937 34.044C117.359 34.044 116.809 34.1403 116.288 34.333C115.767 34.5257 115.325 34.7807 114.962 35.098L114.418 34.197C114.871 33.8117 115.415 33.517 116.05 33.313C116.685 33.0977 117.353 32.99 118.056 32.99C119.212 32.99 120.102 33.279 120.725 33.857C121.36 34.4237 121.677 35.2907 121.677 36.458V42H120.521ZM117.444 42.085C116.775 42.085 116.192 41.9773 115.693 41.762C115.206 41.5353 114.832 41.2293 114.571 40.844C114.31 40.4473 114.18 39.994 114.18 39.484C114.18 39.0193 114.288 38.6 114.503 38.226C114.73 37.8407 115.092 37.5347 115.591 37.308C116.101 37.07 116.781 36.951 117.631 36.951H120.708V37.852H117.665C116.804 37.852 116.203 38.005 115.863 38.311C115.534 38.617 115.37 38.9967 115.37 39.45C115.37 39.96 115.568 40.368 115.965 40.674C116.362 40.98 116.917 41.133 117.631 41.133C118.311 41.133 118.895 40.98 119.382 40.674C119.881 40.3567 120.243 39.9033 120.47 39.314L120.742 40.147C120.515 40.7363 120.119 41.2067 119.552 41.558C118.997 41.9093 118.294 42.085 117.444 42.085ZM127.777 42.085C126.939 42.085 126.293 41.8583 125.839 41.405C125.386 40.9517 125.159 40.3113 125.159 39.484V31.103H126.366V39.416C126.366 39.9373 126.497 40.3397 126.757 40.623C127.029 40.9063 127.415 41.048 127.913 41.048C128.446 41.048 128.888 40.895 129.239 40.589L129.664 41.456C129.426 41.6713 129.137 41.83 128.797 41.932C128.469 42.034 128.129 42.085 127.777 42.085ZM123.561 34.078V33.075H129.086V34.078H123.561ZM135.184 42.085C134.323 42.085 133.547 41.8923 132.855 41.507C132.175 41.1103 131.637 40.572 131.24 39.892C130.844 39.2007 130.645 38.413 130.645 37.529C130.645 36.6337 130.844 35.846 131.24 35.166C131.637 34.486 132.175 33.9533 132.855 33.568C133.535 33.1827 134.312 32.99 135.184 32.99C136.068 32.99 136.85 33.1827 137.53 33.568C138.222 33.9533 138.76 34.486 139.145 35.166C139.542 35.846 139.74 36.6337 139.74 37.529C139.74 38.413 139.542 39.2007 139.145 39.892C138.76 40.572 138.222 41.1103 137.53 41.507C136.839 41.8923 136.057 42.085 135.184 42.085ZM135.184 41.014C135.83 41.014 136.403 40.8723 136.901 40.589C137.4 40.2943 137.791 39.8863 138.074 39.365C138.369 38.8323 138.516 38.2203 138.516 37.529C138.516 36.8263 138.369 36.2143 138.074 35.693C137.791 35.1717 137.4 34.7693 136.901 34.486C136.403 34.1913 135.836 34.044 135.201 34.044C134.567 34.044 134 34.1913 133.501 34.486C133.003 34.7693 132.606 35.1717 132.311 35.693C132.017 36.2143 131.869 36.8263 131.869 37.529C131.869 38.2203 132.017 38.8323 132.311 39.365C132.606 39.8863 133.003 40.2943 133.501 40.589C134 40.8723 134.561 41.014 135.184 41.014ZM142.204 42V33.075H143.36V35.506L143.241 35.081C143.491 34.401 143.91 33.8853 144.499 33.534C145.089 33.1713 145.82 32.99 146.692 32.99V34.163C146.647 34.163 146.602 34.163 146.556 34.163C146.511 34.1517 146.466 34.146 146.42 34.146C145.48 34.146 144.743 34.435 144.21 35.013C143.678 35.5797 143.411 36.39 143.411 37.444V42H142.204Z" fill="white"/>
<rect width="50" height="50" rx="4" fill="#FFBC0F"/>
<rect x="26" y="8" width="16" height="16" rx="3" fill="black"/>
<rect x="26" y="26" width="16" height="16" rx="3" fill="black"/>
<rect x="8" y="26" width="16" height="16" rx="3" fill="black"/>
<rect x="8" y="8" width="16" height="16" rx="3" fill="black"/>
<rect x="12" y="15" width="8" height="2" rx="1" fill="#FFBC0F"/>
<rect x="15" y="20" width="8" height="2" rx="1" transform="rotate(-90 15 20)" fill="#FFBC0F"/>
<rect x="30" y="15" width="8" height="2" rx="1" fill="#FFBC0F"/>
<rect x="30" y="35" width="8" height="2" rx="1" fill="#FFBC0F"/>
<rect x="30" y="31" width="8" height="2" rx="1" fill="#FFBC0F"/>
<rect x="12.4639" y="36.1213" width="8" height="2" rx="1" transform="rotate(-45 12.4639 36.1213)" fill="#FFBC0F"/>
<rect x="18.1211" y="37.5355" width="8" height="2" rx="1" transform="rotate(-135 18.1211 37.5355)" fill="#FFBC0F"/>
</svg>
