<svg width="42" height="49" viewBox="0 0 42 49" fill="none" xmlns="http://www.w3.org/2000/svg">
<path d="M41 44.0769C41 44.893 40.6758 45.6756 40.0988 46.2526C39.5218 46.8297 38.7391 47.1538 37.9231 47.1538H4.07692C3.26087 47.1538 2.47825 46.8297 1.90121 46.2526C1.32418 45.6756 1 44.893 1 44.0769V4.07692C1 3.26087 1.32418 2.47824 1.90121 1.90121C2.47825 1.32417 3.26087 1 4.07692 1H25.88C26.6955 1.00017 27.4775 1.32407 28.0544 1.90051L40.0995 13.9456C40.6759 14.5225 40.9998 15.3045 41 16.12V44.0769Z" stroke="black" stroke-width="2" stroke-linecap="round" stroke-linejoin="round"/>
<path d="M17.7541 15.4158L13.3807 21.2455C13.2484 21.4217 13.0798 21.5674 12.8863 21.6728C12.6928 21.7781 12.479 21.8407 12.2592 21.8563C12.0394 21.8718 11.8189 21.84 11.6125 21.763C11.406 21.6859 11.2186 21.5654 11.0628 21.4096L8.68945 19.0383" stroke="black" stroke-width="2" stroke-linecap="round" stroke-linejoin="round"/>
<path d="M17.7541 29.262L13.3807 35.0917C13.2484 35.2679 13.0798 35.4136 12.8863 35.519C12.6928 35.6243 12.479 35.6869 12.2592 35.7025C12.0394 35.718 11.8189 35.6862 11.6125 35.6091C11.406 35.5321 11.2186 35.4116 11.0628 35.2558L8.68945 32.8825" stroke="black" stroke-width="2" stroke-linecap="round" stroke-linejoin="round"/>
<path d="M24.0762 21.8611H33.3069" stroke="black" stroke-width="2" stroke-linecap="round" stroke-linejoin="round"/>
<path d="M24.0762 34.1685H33.3069" stroke="black" stroke-width="2" stroke-linecap="round" stroke-linejoin="round"/>
</svg>
