<svg width="39" height="39" viewBox="0 0 39 39" fill="none" xmlns="http://www.w3.org/2000/svg">
<path d="M16.9058 3.77034C17.2039 4.10551 17.5682 4.3735 17.9752 4.55694C18.3821 4.74038 18.8226 4.83517 19.268 4.83517C19.7135 4.83517 20.1539 4.74038 20.5609 4.55694C20.9678 4.3735 21.3322 4.10551 21.6303 3.77034L23.1673 2.06237C23.6078 1.56863 24.1883 1.22507 24.8293 1.07882C25.4703 0.932569 26.1402 0.990805 26.7472 1.24553C27.3542 1.50026 27.8684 1.939 28.2194 2.50153C28.5704 3.06406 28.7409 3.72281 28.7075 4.38738L28.5921 6.691C28.5698 7.14038 28.6407 7.58951 28.8002 8.00946C28.9597 8.42942 29.2043 8.81087 29.5182 9.12927C29.8321 9.44766 30.2084 9.69593 30.6228 9.85809C31.0372 10.0202 31.4806 10.0927 31.9243 10.0707L34.1989 9.95391C34.8546 9.92117 35.5044 10.0946 36.059 10.4505C36.6136 10.8064 37.046 11.3272 37.2968 11.9417C37.5477 12.5562 37.6048 13.2342 37.4603 13.8829C37.3158 14.5315 36.9768 15.119 36.4897 15.5649L34.7968 17.1116C34.4662 17.414 34.202 17.7832 34.0212 18.1955C33.8403 18.6077 33.7469 19.0538 33.7469 19.5049C33.7469 19.956 33.8403 20.4021 34.0212 20.8143C34.202 21.2266 34.4662 21.5958 34.7968 21.8982L36.4897 23.4449C36.9772 23.891 37.3164 24.479 37.4608 25.1282C37.6052 25.7773 37.5477 26.4558 37.2962 27.0706C37.0447 27.6853 36.6115 28.2061 36.0561 28.5616C35.5006 28.9171 34.8502 29.0897 34.194 29.0559L31.9195 28.939C31.4748 28.9159 31.0302 28.9875 30.6146 29.1493C30.199 29.3111 29.8215 29.5595 29.5066 29.8784C29.1918 30.1973 28.9465 30.5796 28.7867 31.0005C28.627 31.4215 28.5562 31.8717 28.5791 32.3221L28.6945 34.6257C28.7235 35.2869 28.5509 35.9412 28.2001 36.4996C27.8493 37.058 27.3372 37.4935 26.7335 37.747C26.1297 38.0004 25.4636 38.0594 24.8256 37.9161C24.1876 37.7727 23.6086 37.434 23.1673 36.9458L21.6385 35.2329C21.34 34.8981 20.9756 34.6306 20.5687 34.4474C20.1618 34.2643 19.7214 34.1696 19.2762 34.1696C18.8309 34.1696 18.3906 34.2643 17.9836 34.4474C17.5767 34.6306 17.2123 34.8981 16.9139 35.2329L15.3785 36.9458C14.938 37.4363 14.3587 37.7772 13.7198 37.9221C13.0809 38.067 12.4134 38.0088 11.8084 37.7555C11.2033 37.5022 10.6901 37.066 10.3387 36.5065C9.98735 35.947 9.8149 35.2914 9.84487 34.629L9.96185 32.3254C9.98473 31.875 9.91399 31.4248 9.75421 31.0038C9.59444 30.5829 9.34918 30.2006 9.03432 29.8817C8.71946 29.5628 8.342 29.3144 7.92637 29.1526C7.51074 28.9908 7.0662 28.9192 6.6215 28.9423L4.34695 29.0592C3.69103 29.0938 3.04061 28.922 2.48496 28.5673C1.92931 28.2127 1.49568 27.6925 1.24361 27.0782C0.991535 26.464 0.933375 25.7858 1.07711 25.1367C1.22085 24.4876 1.55944 23.8995 2.04639 23.4531L3.73769 21.9064C4.06823 21.604 4.33245 21.2348 4.5133 20.8226C4.69414 20.4103 4.78758 19.9642 4.78758 19.5131C4.78758 19.062 4.69414 18.6159 4.5133 18.2037C4.33245 17.7914 4.06823 17.4222 3.73769 17.1198L2.04639 15.5649C1.56102 15.119 1.22346 14.5321 1.07987 13.8846C0.936278 13.237 0.993656 12.5603 1.24416 11.947C1.49466 11.3337 1.92607 10.8138 2.47941 10.4582C3.03274 10.1026 3.681 9.92881 4.33557 9.96049L6.61013 10.0773C7.05567 10.101 7.50115 10.0296 7.91764 9.86759C8.33413 9.7056 8.71232 9.45668 9.02764 9.13702C9.34296 8.81736 9.58837 8.4341 9.74792 8.01213C9.90746 7.59015 9.97759 7.13891 9.95373 6.68771L9.84487 4.38244C9.81418 3.71976 9.98612 3.06363 10.3372 2.50358C10.6883 1.94352 11.2015 1.50683 11.8067 1.25307C12.412 0.999324 13.0798 0.94088 13.719 1.08572C14.3582 1.23055 14.9378 1.57162 15.3785 2.06237L16.9058 3.77034Z" stroke="black" stroke-width="2" stroke-linecap="round" stroke-linejoin="round"/>
<path d="M19.2698 27C23.3603 27 26.6762 23.6421 26.6762 19.5C26.6762 15.3579 23.3603 12 19.2698 12C15.1793 12 11.8633 15.3579 11.8633 19.5C11.8633 23.6421 15.1793 27 19.2698 27Z" stroke="black" stroke-width="2" stroke-linecap="round" stroke-linejoin="round"/>
</svg>
