<svg width="80" height="92" viewBox="0 0 80 92" fill="none" xmlns="http://www.w3.org/2000/svg">
<path d="M78.2 84.1384C78.2 85.7134 77.5743 87.2239 76.4606 88.3376C75.347 89.4512 73.8365 90.0769 72.2615 90.0769H6.93846C5.36348 90.0769 3.85301 89.4512 2.73933 88.3376C1.62566 87.2239 1 85.7134 1 84.1384V6.93846C1 5.36348 1.62566 3.85301 2.73933 2.73933C3.85301 1.62566 5.36348 1 6.93846 1H49.0184C50.5923 1.00034 52.1016 1.62545 53.2149 2.73799L76.462 25.9851C77.5745 27.0983 78.1996 28.6077 78.2 30.1816V84.1384Z" stroke="#C89000" stroke-width="2" stroke-linecap="round" stroke-linejoin="round"/>
<path d="M33.3365 28.8224L24.896 40.0738C24.6406 40.4138 24.3152 40.695 23.9418 40.8984C23.5683 41.1018 23.1556 41.2225 22.7314 41.2526C22.3072 41.2826 21.8816 41.2212 21.4832 41.0724C21.0848 40.9237 20.723 40.6912 20.4223 40.3905L15.8418 35.8139" stroke="#C89000" stroke-width="2" stroke-linecap="round" stroke-linejoin="round"/>
<path d="M33.3365 55.5457L24.896 66.7971C24.6406 67.1371 24.3152 67.4183 23.9418 67.6217C23.5683 67.825 23.1556 67.9458 22.7314 67.9758C22.3072 68.0059 21.8816 67.9444 21.4832 67.7957C21.0848 67.647 20.723 67.4144 20.4223 67.1138L15.8418 62.5332" stroke="#C89000" stroke-width="2" stroke-linecap="round" stroke-linejoin="round"/>
<path d="M45.541 41.2618H63.3564" stroke="#C89000" stroke-width="2" stroke-linecap="round" stroke-linejoin="round"/>
<path d="M45.541 65.0154H63.3564" stroke="#C89000" stroke-width="2" stroke-linecap="round" stroke-linejoin="round"/>
</svg>
