<svg width="72" height="81" viewBox="0 0 72 81" fill="none" xmlns="http://www.w3.org/2000/svg">
<path d="M1 80V74.9528C1 70.3131 1.89398 65.7188 3.63091 61.4323C5.36784 57.1458 7.9137 53.251 11.1231 49.9703C14.3325 46.6895 18.1427 44.0871 22.336 42.3116C26.5293 40.536 31.0237 39.6222 35.5625 39.6222C40.1013 39.6222 44.5957 40.536 48.789 42.3116C52.9823 44.0871 56.7925 46.6895 60.0019 49.9703C63.2113 53.251 65.7572 57.1458 67.4941 61.4323C69.231 65.7188 70.125 70.3131 70.125 74.9528V80" stroke="#BD541C" stroke-width="2" stroke-linecap="round" stroke-linejoin="round"/>
<path d="M34.6977 39.6222C39.9684 39.6222 45.0233 37.5877 48.7503 33.9662C52.4773 30.3446 54.5711 25.4328 54.5711 20.3111C54.5711 15.1895 52.4773 10.2776 48.7503 6.6561C45.0233 3.03456 39.9684 1 34.6977 1C29.4269 1 24.372 3.03456 20.645 6.6561C16.918 10.2776 14.8242 15.1895 14.8242 20.3111C14.8242 25.4328 16.918 30.3446 20.645 33.9662C24.372 37.5877 29.4269 39.6222 34.6977 39.6222V39.6222Z" stroke="#BD541C" stroke-width="2" stroke-linecap="round" stroke-linejoin="round"/>
</svg>
