<svg width="94" height="80" viewBox="0 0 94 80" fill="none" xmlns="http://www.w3.org/2000/svg">
<path d="M93 22.2727C93 20.3921 92.2544 18.5885 90.9272 17.2587C89.6 15.9289 87.8 15.1818 85.9231 15.1818H39.9231L31.4308 3.83636C30.7716 2.9557 29.9168 2.24091 28.9341 1.74861C27.9515 1.2563 26.8679 1 25.7692 1H8.07692C6.20001 1 4.39996 1.74707 3.07278 3.07688C1.7456 4.40668 1 6.21028 1 8.09091V71.9091C1 73.7897 1.7456 75.5933 3.07278 76.9231C4.39996 78.2529 6.20001 79 8.07692 79H85.9231C87.8 79 89.6 78.2529 90.9272 76.9231C92.2544 75.5933 93 73.7897 93 71.9091V22.2727Z" stroke="#C6D58F" stroke-width="2" stroke-linecap="round" stroke-linejoin="round"/>
</svg>
