<svg width="74" height="74" viewBox="0 0 74 74" fill="none" xmlns="http://www.w3.org/2000/svg">
<path d="M32.3425 6.39092C32.93 7.04316 33.648 7.56465 34.4499 7.92161C35.2518 8.27857 36.1197 8.46303 36.9975 8.46303C37.8752 8.46303 38.7432 8.27857 39.5451 7.92161C40.347 7.56465 41.0649 7.04316 41.6524 6.39092L44.681 3.06731C45.549 2.10653 46.693 1.43797 47.956 1.15338C49.2191 0.868783 50.5392 0.982107 51.7353 1.4778C52.9313 1.97349 53.9447 2.82724 54.6363 3.9219C55.3279 5.01655 55.6638 6.29845 55.598 7.59165L55.3707 12.0744C55.3267 12.9488 55.4664 13.8228 55.7807 14.64C56.095 15.4572 56.5769 16.1995 57.1955 16.8191C57.8141 17.4387 58.5556 17.9218 59.3722 18.2374C60.1888 18.5529 61.0625 18.6939 61.9369 18.6512L66.4189 18.4238C67.7111 18.3601 68.9914 18.6976 70.0843 19.3901C71.1771 20.0826 72.0291 21.0962 72.5235 22.292C73.0179 23.4877 73.1304 24.8072 72.8456 26.0694C72.5609 27.3316 71.8928 28.4749 70.933 29.3425L67.5971 32.3523C66.9457 32.9407 66.4251 33.6592 66.0687 34.4614C65.7124 35.2636 65.5282 36.1317 65.5282 37.0095C65.5282 37.8873 65.7124 38.7554 66.0687 39.5576C66.4251 40.3598 66.9457 41.0783 67.5971 41.6667L70.933 44.6766C71.8936 45.5447 72.5621 46.6889 72.8466 47.9521C73.1312 49.2153 73.0179 50.5357 72.5223 51.7319C72.0267 52.9282 71.173 53.9417 70.0785 54.6334C68.9841 55.3251 67.7023 55.6611 66.4093 55.5952L61.9273 55.3679C61.051 55.3228 60.175 55.4622 59.356 55.7771C58.537 56.092 57.7932 56.5753 57.1728 57.1958C56.5523 57.8164 56.0691 58.5603 55.7542 59.3794C55.4394 60.1985 55.3 61.0747 55.3451 61.9511L55.5724 66.4338C55.6297 67.7205 55.2896 68.9937 54.5982 70.0803C53.9069 71.167 52.8979 72.0144 51.7082 72.5076C50.5185 73.0007 49.2059 73.1156 47.9487 72.8367C46.6915 72.5578 45.5506 71.8985 44.681 70.9485L41.6684 67.6153C41.0804 66.964 40.3622 66.4433 39.5604 66.0869C38.7586 65.7305 37.8909 65.5463 37.0135 65.5463C36.136 65.5463 35.2684 65.7305 34.4665 66.0869C33.6647 66.4433 32.9466 66.964 32.3585 67.6153L29.3332 70.9485C28.465 71.903 27.3236 72.5664 26.0646 72.8484C24.8056 73.1304 23.4904 73.0172 22.2981 72.5242C21.1058 72.0313 20.0945 71.1826 19.4021 70.0938C18.7097 69.005 18.3699 67.7292 18.429 66.4402L18.6595 61.9575C18.7045 61.0811 18.5652 60.2049 18.2503 59.3858C17.9355 58.5667 17.4522 57.8228 16.8318 57.2023C16.2113 56.5817 15.4675 56.0984 14.6485 55.7835C13.8295 55.4686 12.9535 55.3292 12.0773 55.3743L7.59521 55.6016C6.30273 55.6691 5.02105 55.3348 3.92613 54.6446C2.83122 53.9544 1.97675 52.9421 1.48003 51.7468C0.98332 50.5515 0.868714 49.2318 1.15195 47.9687C1.43519 46.7056 2.10238 45.5612 3.06193 44.6926L6.39466 41.6828C7.04599 41.0944 7.56665 40.3758 7.92301 39.5736C8.27937 38.7714 8.4635 37.9033 8.4635 37.0255C8.4635 36.1477 8.27937 35.2796 7.92301 34.4774C7.56665 33.6752 7.04599 32.9567 6.39466 32.3683L3.06193 29.3425C2.1055 28.4747 1.44034 27.3328 1.15739 26.0726C0.874435 24.8125 0.987498 23.4957 1.48112 22.3023C1.97474 21.1089 2.82484 20.0971 3.91519 19.4052C5.00555 18.7132 6.28296 18.375 7.5728 18.4366L12.0549 18.664C12.9328 18.7101 13.8106 18.5711 14.6313 18.2559C15.452 17.9406 16.1972 17.4562 16.8186 16.8342C17.4399 16.2122 17.9235 15.4663 18.2379 14.6452C18.5523 13.8241 18.6905 12.946 18.6435 12.068L18.429 7.58205C18.3685 6.29251 18.7073 5.01571 19.3992 3.92588C20.091 2.83604 21.1023 1.98625 22.2949 1.49247C23.4875 0.998685 24.8034 0.884955 26.063 1.1668C27.3226 1.44864 28.4646 2.11233 29.3332 3.06731L32.3425 6.39092Z" stroke="#249E93" stroke-width="2" stroke-linecap="round" stroke-linejoin="round"/>
<path d="M37.0008 51.5947C45.0612 51.5947 51.5954 45.0605 51.5954 37.0001C51.5954 28.9397 45.0612 22.4055 37.0008 22.4055C28.9405 22.4055 22.4062 28.9397 22.4062 37.0001C22.4062 45.0605 28.9405 51.5947 37.0008 51.5947Z" stroke="#249E93" stroke-width="2" stroke-linecap="round" stroke-linejoin="round"/>
</svg>
